<svg width="1440" height="700" viewBox="0 0 1440 700" fill="none" xmlns="http://www.w3.org/2000/svg">
<g clip-path="url(#clip0_17_25)">
<rect width="1440" height="700" fill="#41228E"/>
<circle cx="93.5" cy="46.5" r="3.5" fill="#6B57A5"/>
<circle cx="103.5" cy="169.5" r="3.5" fill="#6B57A5"/>
<circle cx="104.5" cy="292.5" r="3.5" fill="#6B57A5"/>
<circle cx="99.5" cy="457.5" r="3.5" fill="#6B57A5"/>
<circle cx="113.5" cy="629.5" r="3.5" fill="#6B57A5"/>
<circle cx="309.5" cy="46.5" r="3.5" fill="#6B57A5"/>
<circle cx="319.5" cy="169.5" r="3.5" fill="#6B57A5"/>
<circle cx="320.5" cy="292.5" r="3.5" fill="#6B57A5"/>
<circle cx="315.5" cy="457.5" r="3.5" fill="#6B57A5"/>
<circle cx="329.5" cy="629.5" r="3.5" fill="#6B57A5"/>
<circle cx="535.5" cy="46.5" r="3.5" fill="#6B57A5"/>
<circle cx="545.5" cy="169.5" r="3.5" fill="#6B57A5"/>
<circle cx="546.5" cy="292.5" r="3.5" fill="#6B57A5"/>
<circle cx="541.5" cy="457.5" r="3.5" fill="#6B57A5"/>
<circle cx="555.5" cy="629.5" r="3.5" fill="#6B57A5"/>
<circle cx="761.5" cy="46.5" r="3.5" fill="#6B57A5"/>
<circle cx="771.5" cy="169.5" r="3.5" fill="#6B57A5"/>
<circle cx="772.5" cy="292.5" r="3.5" fill="#6B57A5"/>
<circle cx="767.5" cy="457.5" r="3.5" fill="#6B57A5"/>
<circle cx="781.5" cy="629.5" r="3.5" fill="#6B57A5"/>
<circle cx="1047.5" cy="39.5" r="3.5" fill="#6B57A5"/>
<circle cx="1046.5" cy="162.5" r="3.5" fill="#6B57A5"/>
<circle cx="1047.5" cy="285.5" r="3.5" fill="#6B57A5"/>
<circle cx="1042.5" cy="450.5" r="3.5" fill="#6B57A5"/>
<circle cx="1050.5" cy="622.5" r="3.5" fill="#6B57A5"/>
<circle cx="1047.5" cy="39.5" r="3.5" fill="#6B57A5"/>
<circle cx="1046.5" cy="162.5" r="3.5" fill="#6B57A5"/>
<circle cx="1047.5" cy="285.5" r="3.5" fill="#6B57A5"/>
<circle cx="1042.5" cy="450.5" r="3.5" fill="#6B57A5"/>
<circle cx="1287.5" cy="447.5" r="3.5" fill="#6B57A5"/>
<circle cx="1050.5" cy="622.5" r="3.5" fill="#6B57A5"/>
<circle cx="1050.5" cy="622.5" r="3" stroke="white" stroke-opacity="0.4"/>
<circle cx="1279.5" cy="46.5" r="3.5" fill="#6B57A5"/>
<circle cx="1289.5" cy="169.5" r="3.5" fill="#6B57A5"/>
<circle cx="1290.5" cy="292.5" r="3.5" fill="#6B57A5"/>
<circle cx="1299.5" cy="629.5" r="3.5" fill="#6B57A5"/>
<circle cx="1042.5" cy="450.5" r="3.5" fill="#6B57A5"/>
</g>
<defs>
<clipPath id="clip0_17_25">
<rect width="1440" height="700" fill="white"/>
</clipPath>
</defs>
</svg>
