<svg width="163" height="187" viewBox="0 0 163 187" fill="none" xmlns="http://www.w3.org/2000/svg">
<path fill-rule="evenodd" clip-rule="evenodd" d="M253 223.5V128.5C253 59.7405 197.259 4 128.5 4C59.7406 4 4 59.7405 4 128.5V223.5C4 292.259 59.7406 348 128.5 348C197.259 348 253 292.259 253 223.5ZM128.5 0C57.5314 0 0 57.5314 0 128.5V223.5C0 294.469 57.5314 352 128.5 352C199.469 352 257 294.469 257 223.5V128.5C257 57.5314 199.469 0 128.5 0ZM177 311H193C261.483 311 317 255.483 317 187C317 118.517 261.483 63 193 63H177C108.517 63 53 118.517 53 187C53 255.483 108.517 311 177 311ZM193 315C263.692 315 321 257.692 321 187C321 116.308 263.692 59 193 59H177C106.308 59 49 116.308 49 187C49 257.692 106.308 315 177 315H193Z" fill="white" fill-opacity="0.4"/>
</svg>
