<svg width="219" height="210" viewBox="0 0 219 210" fill="none" xmlns="http://www.w3.org/2000/svg">
<mask id="path-1-outside-1_14_24" maskUnits="userSpaceOnUse" x="0" y="-0.156113" width="219" height="210" fill="black">
<rect fill="white" y="-0.156113" width="219" height="210"/>
<path fill-rule="evenodd" clip-rule="evenodd" d="M56.1637 14.8439L24.3439 46.6637L78.0863 100.406L15 163.492L46.8198 195.312L109.906 132.226L172.836 195.156L204.656 163.336L141.726 100.406L195.312 46.8198L163.492 15L109.906 68.5863L56.1637 14.8439Z"/>
</mask>
<path d="M24.3439 46.6637L17.2728 39.5926L10.2017 46.6637L17.2728 53.7348L24.3439 46.6637ZM56.1637 14.8439L63.2347 7.77282L56.1637 0.701752L49.0926 7.77282L56.1637 14.8439ZM78.0863 100.406L85.1574 107.477L92.2284 100.406L85.1574 93.3351L78.0863 100.406ZM15 163.492L7.92894 156.421L0.857869 163.492L7.92894 170.563L15 163.492ZM46.8198 195.312L39.7487 202.383L46.8198 209.454L53.8909 202.383L46.8198 195.312ZM109.906 132.226L116.977 125.155L109.906 118.084L102.835 125.155L109.906 132.226ZM172.836 195.156L165.765 202.227L172.836 209.298L179.907 202.227L172.836 195.156ZM204.656 163.336L211.727 170.407L218.798 163.336L211.727 156.265L204.656 163.336ZM141.726 100.406L134.655 93.3351L127.584 100.406L134.655 107.477L141.726 100.406ZM195.312 46.8198L202.383 53.8909L209.454 46.8198L202.383 39.7487L195.312 46.8198ZM163.492 15L170.563 7.92893L163.492 0.857861L156.421 7.92893L163.492 15ZM109.906 68.5863L102.835 75.6574L109.906 82.7285L116.977 75.6574L109.906 68.5863ZM31.4149 53.7348L63.2347 21.915L49.0926 7.77282L17.2728 39.5926L31.4149 53.7348ZM85.1574 93.3351L31.4149 39.5926L17.2728 53.7348L71.0152 107.477L85.1574 93.3351ZM22.0711 170.563L85.1574 107.477L71.0152 93.3351L7.92894 156.421L22.0711 170.563ZM53.8909 188.241L22.0711 156.421L7.92894 170.563L39.7487 202.383L53.8909 188.241ZM102.835 125.155L39.7487 188.241L53.8909 202.383L116.977 139.297L102.835 125.155ZM179.907 188.085L116.977 125.155L102.835 139.297L165.765 202.227L179.907 188.085ZM197.585 156.265L165.765 188.085L179.907 202.227L211.727 170.407L197.585 156.265ZM134.655 107.477L197.585 170.407L211.727 156.265L148.797 93.3351L134.655 107.477ZM188.241 39.7487L134.655 93.3351L148.797 107.477L202.383 53.8909L188.241 39.7487ZM156.421 22.0711L188.241 53.8909L202.383 39.7487L170.563 7.92893L156.421 22.0711ZM116.977 75.6574L170.563 22.0711L156.421 7.92893L102.835 61.5153L116.977 75.6574ZM49.0926 21.915L102.835 75.6574L116.977 61.5153L63.2347 7.77282L49.0926 21.915Z" fill="#E22A55" mask="url(#path-1-outside-1_14_24)"/>
</svg>
