<svg width="215" height="220" viewBox="0 0 215 220" fill="none" xmlns="http://www.w3.org/2000/svg">
<mask id="path-1-outside-1_14_24" maskUnits="userSpaceOnUse" x="0" y="0" width="215" height="220" fill="black">
<rect fill="white" width="215" height="220"/>
<path fill-rule="evenodd" clip-rule="evenodd" d="M198.719 47.6954L166.899 15L107.002 76.5455L47.9494 15.8682L16.1296 48.5636L75.182 109.241L14 172.106L45.8198 204.802L107.002 141.936L168.847 205.483L200.667 172.788L138.822 109.241L198.719 47.6954Z"/>
</mask>
<path d="M166.899 15L174.066 8.02554L166.899 0.661979L159.733 8.02554L166.899 15ZM198.719 47.6954L205.885 54.6698L212.673 47.6954L205.885 40.7209L198.719 47.6954ZM107.002 76.5455L99.8354 83.52L107.002 90.8835L114.168 83.52L107.002 76.5455ZM47.9494 15.8682L55.1157 8.89376L47.9494 1.5302L40.783 8.89376L47.9494 15.8682ZM16.1296 48.5636L8.9632 41.5891L2.1755 48.5636L8.9632 55.538L16.1296 48.5636ZM75.182 109.241L82.3484 116.215L89.1361 109.241L82.3484 102.266L75.182 109.241ZM14 172.106L6.83363 165.132L0.0459355 172.106L6.83363 179.081L14 172.106ZM45.8198 204.802L38.6534 211.776L45.8198 219.14L52.9862 211.776L45.8198 204.802ZM107.002 141.936L114.168 134.962L107.002 127.598L99.8354 134.962L107.002 141.936ZM168.847 205.483L161.681 212.458L168.847 219.821L176.013 212.458L168.847 205.483ZM200.667 172.788L207.833 179.762L214.621 172.788L207.833 165.813L200.667 172.788ZM138.822 109.241L131.655 102.266L124.868 109.241L131.655 116.215L138.822 109.241ZM159.733 21.9745L191.553 54.6698L205.885 40.7209L174.066 8.02554L159.733 21.9745ZM114.168 83.52L174.066 21.9745L159.733 8.02554L99.8354 69.5711L114.168 83.52ZM40.783 22.8427L99.8354 83.52L114.168 69.5711L55.1157 8.89376L40.783 22.8427ZM23.2959 55.538L55.1157 22.8427L40.783 8.89376L8.9632 41.5891L23.2959 55.538ZM82.3484 102.266L23.2959 41.5891L8.9632 55.538L68.0156 116.215L82.3484 102.266ZM21.1664 179.081L82.3484 116.215L68.0156 102.266L6.83363 165.132L21.1664 179.081ZM52.9862 197.827L21.1664 165.132L6.83363 179.081L38.6534 211.776L52.9862 197.827ZM99.8354 134.962L38.6534 197.827L52.9862 211.776L114.168 148.911L99.8354 134.962ZM176.013 198.509L114.168 134.962L99.8354 148.911L161.681 212.458L176.013 198.509ZM193.5 165.813L161.681 198.509L176.013 212.458L207.833 179.762L193.5 165.813ZM131.655 116.215L193.5 179.762L207.833 165.813L145.988 102.266L131.655 116.215ZM191.553 40.7209L131.655 102.266L145.988 116.215L205.885 54.6698L191.553 40.7209Z" fill="#E22A55" mask="url(#path-1-outside-1_14_24)"/>
</svg>
