<svg width="26" height="21" viewBox="0 0 26 21" fill="none" xmlns="http://www.w3.org/2000/svg">
<path d="M9.14999 3.09754C7.22041 4.04678 6.25562 4.52141 5.95969 5.17327C5.7212 5.69862 5.7212 6.30138 5.95969 6.82673C6.25562 7.47859 7.22041 7.95322 9.14999 8.90246C10.7236 9.6766 11.5104 10.0637 12.1485 9.95494C12.665 9.86692 13.1263 9.57973 13.4333 9.15512C13.8125 8.6306 13.8125 7.75373 13.8125 6C13.8125 4.24627 13.8125 3.3694 13.4333 2.84488C13.1263 2.42027 12.665 2.13308 12.1485 2.04506C11.5104 1.93634 10.7236 2.3234 9.14999 3.09754Z" fill="#EF5579"/>
<path d="M15.1667 3.73333C15.1667 2.77604 15.9427 2 16.9 2H19.8333C22.0425 2 23.8333 3.79086 23.8333 6C23.8333 8.20914 22.0425 10 19.8333 10H16.9C15.9427 10 15.1667 9.22396 15.1667 8.26667V3.73333Z" fill="#4CC5E4"/>
<rect x="15.1667" y="11" width="8" height="6" rx="1" fill="#FBA91F"/>
<path fill-rule="evenodd" clip-rule="evenodd" d="M5.41666 15.8844L5.45541 15.9597L12.9649 11.0973L12.9149 11H13.3333C13.8856 11 14.3333 11.4477 14.3333 12V16C14.3333 16.5523 13.8856 17 13.3333 17H6.41667C5.86438 17 5.41666 16.5523 5.41666 16V15.8844Z" fill="#856EC7"/>
<path d="M11.9167 3.08333C11.9167 2.48502 12.4017 2 13 2C13.5983 2 14.0833 2.48502 14.0833 3.08333V8.91667C14.0833 9.51498 13.5983 10 13 10C12.4017 10 11.9167 9.51498 11.9167 8.91667V3.08333Z" fill="#E22A55"/>
<path d="M12.4583 12C12.4583 11.4477 12.9061 11 13.4583 11C14.0106 11 14.4583 11.4477 14.4583 12V16C14.4583 16.5523 14.0106 17 13.4583 17C12.9061 17 12.4583 16.5523 12.4583 16V12Z" fill="#5B479D"/>
</svg>
