<svg width="25" height="31" viewBox="0 0 25 31" fill="none" xmlns="http://www.w3.org/2000/svg">
<path d="M8 0.809524C8 0.362436 8.36244 0 8.80952 0H21.5C23.433 0 25 1.567 25 3.5V3.5C25 5.433 23.433 7 21.5 7H11.4C9.52223 7 8 5.47777 8 3.6V0.809524Z" fill="#4CC5E4"/>
<path d="M9 10.5714C9 10.2558 9.25584 10 9.57143 10H17.5C19.433 10 21 11.567 21 13.5V13.5C21 15.433 19.433 17 17.5 17H11.4C10.0745 17 9 15.9255 9 14.6V10.5714Z" fill="#FAA314"/>
<path d="M25 4.2093C25 4.09371 24.9063 4 24.7907 4L8.14286 4C8.06396 4 8 4.06396 8 4.14286V4.14286C8 5.72081 9.27919 7 10.8571 7L22.2093 7C23.7506 7 25 5.75056 25 4.2093V4.2093Z" fill="#3094AD"/>
<path d="M21 14.2093C21 14.0937 20.9063 14 20.7907 14L9.14286 14C9.06396 14 9 14.064 9 14.1429V14.1429C9 15.7208 10.2792 17 11.8571 17H18.2093C19.7506 17 21 15.7506 21 14.2093V14.2093Z" fill="#B57E25"/>
<path d="M0.636363 31C0.28491 31 0 30.7151 0 30.3636L0 6.36364C0 2.8491 2.8491 0 6.36364 0V0C6.71509 0 7 0.28491 7 0.636364L7 24.6364C7 28.1509 4.1509 31 0.636363 31V31Z" fill="#EF5579"/>
<path d="M4.07317 30C4.03276 30 4 29.9672 4 29.9268L4 2C4 0.89543 4.89543 0 6 0H6.5C6.77614 0 7 0.223858 7 0.5L7 27.0732C7 28.6896 5.68961 30 4.07317 30V30Z" fill="#E22A55"/>
</svg>
